<?xml version="1.0" standalone="no"?>
<!DOCTYPE svg PUBLIC "-//W3C//DTD SVG 20010904//EN"
 "http://www.w3.org/TR/2001/REC-SVG-20010904/DTD/svg10.dtd">
<svg version="1.0" xmlns="http://www.w3.org/2000/svg"
 width="512.000000pt" height="512.000000pt" viewBox="0 0 512.000000 512.000000"
 preserveAspectRatio="xMidYMid meet">
<metadata>
Created by potrace 1.14, written by Peter Selinger 2001-2017
</metadata>
<g transform="translate(0.000000,512.000000) scale(0.100000,-0.100000)"
fill="#000000" stroke="none">
<path d="M2320 5109 c-491 -47 -981 -246 -1366 -557 -599 -482 -954 -1224
-954 -1992 0 -577 204 -1155 568 -1606 482 -599 1224 -954 1992 -954 577 0
1155 204 1606 568 599 482 954 1224 954 1992 0 577 -204 1155 -568 1606 -433
538 -1071 879 -1767 944 -125 11 -340 11 -465 -1z m700 -1053 c224 -28 363
-66 517 -142 l92 -45 15 -52 c69 -244 83 -442 42 -633 -73 -345 -343 -647
-766 -859 -200 -100 -456 -194 -644 -236 -32 -7 -60 -17 -62 -23 -1 -6 -26
-227 -54 -490 -28 -264 -53 -482 -55 -484 -3 -3 -101 -15 -219 -26 l-214 -22
-6 41 c-14 105 -247 2787 -243 2792 21 20 454 118 662 148 304 45 713 58 935
31z"/>
<path d="M2466 3774 c-38 -7 -70 -15 -72 -17 -8 -7 -147 -1367 -141 -1373 8
-9 160 92 239 159 229 195 380 516 365 777 -10 186 -94 343 -234 441 -46 32
-58 33 -157 13z"/>
</g>
</svg>
